<svg width="37" height="36" viewBox="0 0 37 36" fill="none" xmlns="http://www.w3.org/2000/svg">
<path d="M18.5152 22.875C20.8552 22.875 22.7752 21.03 22.7752 18.75C22.7752 16.47 20.8552 14.625 18.5152 14.625C16.1602 14.625 14.2402 16.47 14.2402 18.75C14.2402 21.03 16.1602 22.875 18.5152 22.875Z" fill="black"/>
<path d="M29.3001 9.375H25.7901C25.2951 9.375 24.8601 9.075 24.7101 8.64C24.2451 7.29 22.9551 6.375 21.5001 6.375H15.5151C14.0601 6.375 12.7701 7.29 12.3051 8.64C12.1551 9.075 11.7201 9.375 11.2251 9.375H10.3851V9C10.3851 8.385 9.87512 7.875 9.26012 7.875C8.63012 7.875 8.13512 8.385 8.13512 9V9.375H7.71512C5.39012 9.375 3.51514 11.22 3.51514 13.5V25.5C3.51514 27.78 5.39012 29.625 7.71512 29.625H29.3001C31.6251 29.625 33.5151 27.78 33.5151 25.5V13.5C33.5151 11.22 31.6251 9.375 29.3001 9.375ZM18.5151 12.375C22.1001 12.375 25.0251 15.24 25.0251 18.75C25.0251 22.26 22.1001 25.125 18.5151 25.125C14.9151 25.125 11.9901 22.26 11.9901 18.75C11.9901 15.24 14.9151 12.375 18.5151 12.375Z" fill="black"/>
</svg>
