<svg width="16" height="16" viewBox="0 0 16 16" fill="none" xmlns="http://www.w3.org/2000/svg">
<path d="M8.00016 1.33331C4.32683 1.33331 1.3335 4.32665 1.3335 7.99998C1.3335 11.6733 4.32683 14.6666 8.00016 14.6666C11.6735 14.6666 14.6668 11.6733 14.6668 7.99998C14.6668 4.32665 11.6735 1.33331 8.00016 1.33331ZM9.61351 8.92665C9.81351 9.12665 9.80684 9.43998 9.61351 9.63331C9.5135 9.72664 9.38684 9.77998 9.26017 9.77998C9.13351 9.77998 9.00015 9.72665 8.90682 9.62665L8.00016 8.71332L7.10016 9.62665C7.00016 9.72665 6.87349 9.77998 6.74015 9.77998C6.61349 9.77998 6.48683 9.72664 6.39349 9.63331C6.19349 9.43998 6.19349 9.12665 6.38682 8.92665L7.30017 7.99998L6.38682 7.07331C6.19349 6.87331 6.19349 6.55998 6.39349 6.36665C6.58683 6.17332 6.90683 6.17331 7.10016 6.37331L8.00016 7.28664L8.90682 6.37331C9.10015 6.17331 9.41351 6.17332 9.61351 6.36665C9.80684 6.55998 9.81351 6.87331 9.61351 7.07331L8.70015 7.99998L9.61351 8.92665Z" fill="#B6B7B6"/>
</svg>
