<svg width="25" height="25" viewBox="0 0 25 25" fill="none" xmlns="http://www.w3.org/2000/svg">
<path fill-rule="evenodd" clip-rule="evenodd" d="M6.66987 13.9103C11.2605 13.9103 11.4647 15.4672 11.4647 18.7051C11.4647 20.3275 11.4647 21.4816 10.7833 22.3267C9.99921 23.3003 8.57203 23.5 6.66987 23.5C4.76772 23.5 3.34054 23.3003 2.55644 22.3267C1.875 21.4816 1.875 20.3286 1.875 18.7333L2.72115 18.7051H1.875C1.875 15.4672 2.07921 13.9103 6.66987 13.9103ZM19.0801 13.9103C23.6708 13.9103 23.875 15.4672 23.875 18.7051C23.875 20.3275 23.875 21.4816 23.1936 22.3267C22.4095 23.3003 20.9823 23.5 19.0801 23.5C17.178 23.5 15.7508 23.3003 14.9667 22.3267C14.2853 21.4816 14.2853 20.3286 14.2853 18.7333L15.1314 18.7051H14.2853C14.2853 15.4672 14.4895 13.9103 19.0801 13.9103ZM6.90246 15.6031L6.66987 15.6026C3.72641 15.6026 3.57547 15.8138 3.56773 18.2844L3.5682 19.2469C3.57355 20.2295 3.61099 20.9393 3.87305 21.2662C4.17203 21.6362 5.05992 21.8077 6.66987 21.8077C8.27982 21.8077 9.16772 21.6351 9.46669 21.265C9.77244 20.8848 9.77244 19.9823 9.77244 18.7322C9.77244 15.9115 9.77244 15.6163 6.90246 15.6031ZM19.3127 15.6031L19.0801 15.6026C16.1367 15.6026 15.9857 15.8138 15.978 18.2844L15.9785 19.2469C15.9838 20.2295 16.0212 20.9393 16.2833 21.2662C16.5823 21.6362 17.4702 21.8077 19.0801 21.8077C20.6901 21.8077 21.578 21.6351 21.8769 21.265C22.1827 20.8848 22.1827 19.9823 22.1827 18.7322C22.1827 15.9115 22.1827 15.6163 19.3127 15.6031ZM6.66987 1.5C11.2605 1.5 11.4647 3.05692 11.4647 6.29487C11.4647 7.91723 11.4647 9.07138 10.7833 9.91641C9.99921 10.8901 8.57203 11.0897 6.66987 11.0897C4.76772 11.0897 3.34054 10.8901 2.55644 9.91641C1.875 9.07138 1.875 7.91836 1.875 6.32308L2.72115 6.29487H1.875C1.875 3.05692 2.07921 1.5 6.66987 1.5ZM19.0801 1.5C23.6708 1.5 23.875 3.05692 23.875 6.29487C23.875 7.91723 23.875 9.07138 23.1936 9.91641C22.4095 10.8901 20.9823 11.0897 19.0801 11.0897C17.178 11.0897 15.7508 10.8901 14.9667 9.91641C14.2853 9.07138 14.2853 7.91836 14.2853 6.32308L15.1314 6.29487H14.2853C14.2853 3.05692 14.4895 1.5 19.0801 1.5ZM6.90246 3.19281L6.66987 3.19231C3.72641 3.19231 3.57547 3.40352 3.56773 5.87411L3.5682 6.83661C3.57355 7.81924 3.61099 8.52904 3.87305 8.8559C4.17203 9.22595 5.05992 9.39744 6.66987 9.39744C8.27982 9.39744 9.16772 9.22482 9.46669 8.85477C9.77244 8.47456 9.77244 7.572 9.77244 6.32195C9.77244 3.5012 9.77244 3.20609 6.90246 3.19281ZM19.3127 3.19281L19.0801 3.19231C16.1367 3.19231 15.9857 3.40352 15.978 5.87411L15.9785 6.83661C15.9838 7.81924 16.0212 8.52904 16.2833 8.8559C16.5823 9.22595 17.4702 9.39744 19.0801 9.39744C20.6901 9.39744 21.578 9.22482 21.8769 8.85477C22.1827 8.47456 22.1827 7.572 22.1827 6.32195C22.1827 3.5012 22.1827 3.20609 19.3127 3.19281Z" fill="#3663FF"/>
</svg>
