<svg width="25" height="24" viewBox="0 0 25 24" fill="none" xmlns="http://www.w3.org/2000/svg">
<path d="M17.5002 9.17C17.3128 8.98375 17.0594 8.87921 16.7952 8.87921C16.531 8.87921 16.2776 8.98375 16.0902 9.17L12.5002 12.71L8.96019 9.17C8.77283 8.98375 8.51938 8.87921 8.25519 8.87921C7.99101 8.87921 7.73756 8.98375 7.55019 9.17C7.45646 9.26297 7.38207 9.37357 7.3313 9.49543C7.28053 9.61729 7.25439 9.74799 7.25439 9.88C7.25439 10.012 7.28053 10.1427 7.3313 10.2646C7.38207 10.3864 7.45646 10.497 7.55019 10.59L11.7902 14.83C11.8832 14.9237 11.9938 14.9981 12.1156 15.0489C12.2375 15.0997 12.3682 15.1258 12.5002 15.1258C12.6322 15.1258 12.7629 15.0997 12.8848 15.0489C13.0066 14.9981 13.1172 14.9237 13.2102 14.83L17.5002 10.59C17.5939 10.497 17.6683 10.3864 17.7191 10.2646C17.7699 10.1427 17.796 10.012 17.796 9.88C17.796 9.74799 17.7699 9.61729 17.7191 9.49543C17.6683 9.37357 17.5939 9.26297 17.5002 9.17Z" fill="black"/>
</svg>
