<svg width="25" height="24" viewBox="0 0 25 24" fill="none" xmlns="http://www.w3.org/2000/svg">
<path d="M17.9739 10.1693C18.22 9.85344 18.1619 9.39843 17.844 9.15306C17.5262 8.90575 17.0708 8.96468 16.8246 9.28251L14.434 12.3574L11.7014 10.2176C11.5493 10.0969 11.3574 10.0428 11.1617 10.0679C10.9698 10.0921 10.7944 10.1916 10.6762 10.3452L7.77591 14.103C7.53075 14.4199 7.59083 14.8749 7.90867 15.1193C8.04045 15.2198 8.19647 15.2691 8.35151 15.2691C8.56954 15.2691 8.78466 15.1715 8.92808 14.986L11.3807 11.8087L14.1114 13.9475C14.2645 14.0663 14.4563 14.1224 14.6501 14.0963C14.842 14.0731 15.0164 13.9736 15.1347 13.821L17.9739 10.1693Z" fill="#545656"/>
<path fill-rule="evenodd" clip-rule="evenodd" d="M22.625 7.89302C22.625 4.36837 20.358 2 16.9841 2H8.26593C4.89198 2 2.625 4.36837 2.625 7.89302V16.107C2.625 19.6316 4.89198 22 8.26593 22H16.9841C20.358 22 22.625 19.6316 22.625 16.107V7.89302ZM8.26593 3.39535H16.9841C19.5636 3.39535 21.2297 5.16 21.2297 7.89302V16.107C21.2297 18.84 19.5636 20.6047 16.9841 20.6047H8.26593C5.68733 20.6047 4.02035 18.84 4.02035 16.107V7.89302C4.02035 5.16 5.68733 3.39535 8.26593 3.39535Z" fill="#545656"/>
</svg>
