<svg width="25" height="24" viewBox="0 0 25 24" fill="none" xmlns="http://www.w3.org/2000/svg">
<path fill-rule="evenodd" clip-rule="evenodd" d="M1.625 6.26214C1.625 4.17786 3.33401 2.5 5.42677 2.5C7.51952 2.5 9.22854 4.17786 9.22854 6.26214C9.22854 8.34641 7.51952 10.0243 5.42677 10.0243C3.33401 10.0243 1.625 8.34641 1.625 6.26214ZM1.625 17.7621C1.625 15.6779 3.33401 14 5.42677 14C7.51952 14 9.22854 15.6779 9.22854 17.7621C9.22854 19.8464 7.51952 21.5243 5.42677 21.5243C3.33401 21.5243 1.625 19.8464 1.625 17.7621ZM5.42676 4.47705C4.4181 4.47705 3.6123 5.28312 3.6123 6.26216C3.6123 7.2412 4.4181 8.04726 5.42676 8.04726C6.43541 8.04726 7.24121 7.2412 7.24121 6.26216C7.24121 5.28312 6.43541 4.47705 5.42676 4.47705ZM5.42676 15.9771C4.4181 15.9771 3.6123 16.7831 3.6123 17.7622C3.6123 18.7412 4.4181 19.5473 5.42676 19.5473C6.43541 19.5473 7.24121 18.7412 7.24121 17.7622C7.24121 16.7831 6.43541 15.9771 5.42676 15.9771ZM13.4805 5.33765C12.9317 5.33765 12.4868 5.78022 12.4868 6.32617C12.4868 6.87211 12.9317 7.31468 13.4805 7.31468H20.9676C21.5164 7.31468 21.9612 6.87211 21.9612 6.32617C21.9612 5.78022 21.5164 5.33765 20.9676 5.33765H13.4805ZM13.4805 17C12.9317 17 12.4868 17.4426 12.4868 17.9885C12.4868 18.5345 12.9317 18.977 13.4805 18.977H20.9676C21.5164 18.977 21.9612 18.5345 21.9612 17.9885C21.9612 17.4426 21.5164 17 20.9676 17H13.4805Z" fill="#545656"/>
</svg>
