<svg width="16" height="16" viewBox="0 0 16 16" fill="none" xmlns="http://www.w3.org/2000/svg">
<path d="M10.36 7.52685L6.58666 3.76019C6.52469 3.6977 6.45096 3.64811 6.36972 3.61426C6.28848 3.58041 6.20134 3.56299 6.11333 3.56299C6.02532 3.56299 5.93819 3.58041 5.85695 3.61426C5.77571 3.64811 5.70197 3.6977 5.64 3.76019C5.51583 3.8851 5.44614 4.05406 5.44614 4.23019C5.44614 4.40631 5.51583 4.57528 5.64 4.70019L8.94 8.03352L5.64 11.3335C5.51583 11.4584 5.44614 11.6274 5.44614 11.8035C5.44614 11.9796 5.51583 12.1486 5.64 12.2735C5.70174 12.3365 5.77537 12.3866 5.85662 12.421C5.93787 12.4553 6.02513 12.4732 6.11333 12.4735C6.20154 12.4732 6.28879 12.4553 6.37004 12.421C6.45129 12.3866 6.52492 12.3365 6.58666 12.2735L10.36 8.50685C10.4277 8.44443 10.4817 8.36866 10.5186 8.28432C10.5555 8.19999 10.5746 8.10892 10.5746 8.01685C10.5746 7.92479 10.5555 7.83372 10.5186 7.74938C10.4817 7.66505 10.4277 7.58928 10.36 7.52685Z" fill="#3663FF"/>
</svg>
